Format                                   : AVI

Format/Info                              : Audio Video Interleave

File size                                : 1.37 GiB

Duration                                 : 1h 44mn

Overall bit rate                         : 1 885 Kbps

Writing application                      : VirtualDubMod 1.5.10.2 (build 2542/release)

Writing library                          : VirtualDubMod build 2542/release



Video

ID                                       : 0

Format                                   : MPEG-4 Visual

Format profile                           : Advanced Simple@L5

Format settings, BVOP                    : 2

Format settings, QPel                    : No

Format settings, GMC                     : No warppoints

Format settings, Matrix                  : Default (MPEG)

Codec ID                                 : XVID

Codec ID/Hint                            : XviD

Duration                                 : 1h 44mn

Bit rate                                 : 1 491 Kbps

Width                                    : 720 pixels

Height                                   : 400 pixels

Display aspect ratio                     : 16:9

Frame rate                               : 25.000 fps

Color space                              : YUV

Chroma subsampling                       : 4:2:0

Bit depth                                : 8 bits

Scan type                                : Progressive

Compression mode                         : Lossy

Bits/(Pixel*Frame)                       : 0.207

Stream size                              : 1.08 GiB (79%)

Writing library                          : XviD 1.2.1 (UTC 2008-12-04)



Audio

ID                                       : 1

Format                                   : AC-3

Format/Info                              : Audio Coding 3

Mode extension                           : CM (complete main)

Format settings, Endianness              : Big

Codec ID                                 : 2000

Duration                                 : 1h 44mn

Bit rate mode                            : Constant

Bit rate                                 : 384 Kbps

Channel(s)                               : 6 channels

Channel positions                        : Front: L C R, Side: L R, LFE

Sampling rate                            : 48.0 KHz

Bit depth                                : 16 bits

Compression mode                         : Lossy

Stream size                              : 286 MiB (20%)

Alignment                                : Split accross interleaves

Interleave, duration                     : 40 ms (1.00 video frame)

Interleave, preload duration             : 500 ms[/color][/b]
 
http://www.shotpix.com/images/83452541811964950307.png 
http://www.shotpix.com/images/67977730196233291777.png